<?xml version="1.0" ?><!DOCTYPE svg  PUBLIC '-//W3C//DTD SVG 1.1//EN'  'http://www.w3.org/Graphics/SVG/1.1/DTD/svg11.dtd'><svg enable-background="new 0 0 800 800" height="800px" id="Layer_1" version="1.1" viewBox="0 0 800 800" width="800px" xml:space="preserve" xmlns="http://www.w3.org/2000/svg" xmlns:xlink="http://www.w3.org/1999/xlink"><g><path d="M561.335,744.605H448.478l110.428-541.696c1.955-9.574-4.224-18.911-13.798-20.866l-24.566-5.014   L542.64,68.674c1.944-9.574-4.224-18.911-13.798-20.865L394.271,20.369c-4.58-0.928-9.377,0-13.285,2.586   c-3.918,2.586-6.643,6.613-7.58,11.213l-22.09,108.355l-24.567-4.995c-4.589-0.928-9.376-0.02-13.295,2.566   c-3.908,2.586-6.633,6.633-7.57,11.232L184.934,744.605h-57.811c-9.771,0-17.688,7.917-17.688,17.688   c0,9.771,7.916,17.688,17.688,17.688h434.212c9.762,0,17.688-7.917,17.688-17.688C579.022,752.522,571.097,744.605,561.335,744.605   z M397.192,557.27c-9.555-1.935-18.922,4.225-20.865,13.799l-9.377,46.014l-48.739-9.929l9.376-46.016   c1.955-9.572-4.224-18.91-13.798-20.865c-9.594-1.934-18.912,4.225-20.866,13.8l-9.376,46.015l-31.724-6.475l15.595-76.515   l183.705,37.447l-15.595,76.515l-33.914-6.909l9.377-46.016C412.936,568.561,406.757,559.225,397.192,557.27z M290.278,404.973   l183.705,37.447l-15.793,77.461l-33.913-6.909l9.376-46.015c1.954-9.574-4.225-18.911-13.799-20.866   c-9.535-1.934-18.901,4.225-20.865,13.8l-9.377,46.015l-48.72-9.93l9.376-46.015c1.945-9.574-4.234-18.912-13.798-20.866   c-9.534-1.935-18.912,4.225-20.866,13.799l-9.376,46.015l-31.743-6.475L290.278,404.973z M312.939,293.794l183.705,37.447   l-15.595,76.515l-33.914-6.909l9.189-45.068c1.944-9.573-4.225-18.91-13.799-20.865c-9.555-1.935-18.901,4.225-20.865,13.799   l-9.189,45.067l-48.73-9.93l9.189-45.087c1.955-9.574-4.224-18.911-13.798-20.866c-9.555-1.895-18.911,4.226-20.866,13.799   l-9.188,45.088l-31.733-6.476L312.939,293.794z M404.536,58.566l99.905,20.372l-18.565,91.023l-99.896-20.372L404.536,58.566z    M337.014,175.727l24.526,4.994c0.011,0,0.021,0.02,0.04,0.02l134.562,27.42c0.009,0,0.009,0,0.009,0l24.558,5.014l-16.996,83.403   l-33.914-6.909l10.699-52.489c1.955-9.574-4.224-18.932-13.799-20.866c-9.584-1.954-18.91,4.225-20.865,13.799l-10.699,52.489   l-48.72-9.929l10.699-52.51c1.954-9.555-4.225-18.911-13.798-20.865c-9.516-1.915-18.912,4.224-20.866,13.798l-10.699,52.51   l-31.743-6.475L337.014,175.727z M244.757,628.276l183.704,37.447l-16.088,78.882h-29.838c0.01-13.146-1.125-25.682-3.909-36.814   c-7.027-28.091-21.961-45.817-42.037-49.904l-5.399-1.105c-34.22-7.008-69.396,30.006-85.949,87.824h-24.202L244.757,628.276z    M347.367,744.605h-65.084c12.298-35.414,31.564-55.292,41.85-53.16l5.389,1.105c5.646,1.145,11.45,10.502,14.786,23.827   C346.391,724.688,347.308,734.342,347.367,744.605z" fill="#4D4D4D"/><path d="M672.878,744.605h-43.381c-9.771,0-17.687,7.917-17.687,17.688c0,9.771,7.916,17.688,17.687,17.688h43.381   c9.761,0,17.687-7.917,17.687-17.688C690.564,752.522,682.639,744.605,672.878,744.605z" fill="#4D4D4D"/></g></svg>